<svg id="Capa_1" enable-background="new 0 0 467.765 467.765" height="512" viewBox="0 0 467.765 467.765" width="512" xmlns="http://www.w3.org/2000/svg"><path d="m360.345 233.882c29.835-24.139 48.949-61.04 48.949-102.324 0-72.545-59.013-131.558-131.559-131.558h-219.264v58.471h29.235v350.824h-29.235v58.471h219.265c72.546 0 131.559-59.013 131.559-131.559-.001-41.285-19.115-78.186-48.95-102.325zm-82.61 175.412h-131.559v-146.176h131.559c40.299 0 73.088 32.79 73.088 73.088s-32.789 73.088-73.088 73.088zm0-204.647h-131.559v-146.176h131.559c40.299 0 73.088 32.79 73.088 73.088s-32.789 73.088-73.088 73.088z"/></svg>