<svg id="Layer_1" enable-background="new 0 0 512 512" height="512" viewBox="0 0 512 512" width="512" xmlns="http://www.w3.org/2000/svg"><path d="m8.077 172.083c31.578 23.761 79.282 36.655 141.919 38.411 17.243 20.059 44.464 36.104 71.927 35.127 6.279-.215 9.529-7.633 5.42-12.394l-20.65-23.936c14.794-.964 30.08-2.416 45.818-4.362 8.336 10.346 32.075 37.555 54.386 41.892 2.588.504 5.299-.389 7.082-2.431.296-.34 30.153-33.945 70.789-32.766 7.922.152 10.647-10.284 3.866-14.053l-23.927-13.293c9.951-2.428 19.257-4.868 27.719-7.242.019.005 103.805 27.02 103.825 27.025 10.068 2.475 18.703-7.535 14.786-17.12-4.741-11.602-14.04-29.119-29.479-38.351 15.073-9.819 23.696-27.682 27.99-39.456 3.541-9.713-5.439-19.409-15.464-16.53l-102.834 30.04c-38.652-12.542-80.295-20.351-124.542-23.345l5.789-10.935c2.782-5.257 1.216-11.807-3.642-15.237l-39.539-27.909c-4.306-3.041-10.185-2.852-14.296.458-27.005 21.746-34.232 43.251-36.157 53.857-83.555 5.933-152.6 27.26-171.059 41.92-10.482 8.324-10.384 22.609.273 30.63zm163.533 38.585c5.298-.06 10.67-.189 16.121-.392l15.591 18.071c-13.166-3.735-24.191-11.309-31.712-17.679zm322.158-102.345c-5.326 12.82-15.677 30.369-32.835 32.185-10.321 1.079-10.033 16.259.315 16.951 17.203 1.154 28.211 18.249 34.03 30.85l-75.528-19.659c8.13-2.775 14.4-5.26 18.359-7.262 8.558-4.321 8.413-16.725-.421-20.751-7.314-3.332-14.762-6.463-22.332-9.408zm-271.155-49.477 35.335 24.941-7.743 14.626c-18.083-.727-36.384-.711-55.836.205 2.289-8.602 8.934-23.652 28.244-39.772zm201.62 92.229c-17.282 6.727-54.978 17.892-103.574 27.602-4.062.811-6.697 4.762-5.885 8.824.812 4.061 4.764 6.702 8.823 5.885 6.793-1.357 13.432-2.756 19.882-4.178 1.101 1.195.376.647 17.322 10.061-27.312 6.708-47.237 24.234-54.813 31.777-12.135-4.337-26.256-17.846-35.784-28.485 7.788-1.119 15.668-2.344 23.649-3.692 4.084-.689 6.836-4.559 6.147-8.644-.69-4.084-4.564-6.834-8.644-6.146-45.596 7.698-94.438 12.636-140.057 11.451 5.193-34.107-8.438-58.993-34.205-73.348 100.254-17.388 212.641-11.969 307.139 28.893zm-407.1 2.123c8.909-7.075 35.338-17.23 72.515-25.577 5.45 1.19 27.126 6.903 39.21 24.465 7.803 11.341 10.271 25.734 7.362 42.813-52.424-3.044-92.421-14.709-119.125-34.802-2.883-2.171-2.678-4.742.038-6.899z"/><ellipse cx="63.96" cy="151.66" rx="11.395" ry="11.418"/><path d="m504.189 363.433c-11.42-9.07-40.745-19.808-76.532-28.024-22.584-5.186-55.117-11.096-94.526-13.895-1.925-10.605-9.151-32.111-36.157-53.858-4.11-3.309-9.987-3.499-14.294-.459l-39.54 27.911c-4.858 3.43-6.425 9.979-3.642 15.237l5.79 10.935c-44.248 2.994-85.89 10.803-124.543 23.345l-102.864-30.047c-9.958-2.862-18.982 6.803-15.433 16.538 4.293 11.775 12.917 29.638 27.989 39.456-15.438 9.232-24.738 26.75-29.478 38.351-3.452 8.446 2.866 17.492 11.728 17.492 2.664 0-5.904 1.961 107.005-27.429 8.378 2.364 17.631 4.815 27.605 7.268l-23.936 13.298c-6.829 3.795-3.98 14.27 3.866 14.053 40.496-1.206 70.499 32.436 70.789 32.767 1.789 2.049 4.503 2.932 7.082 2.431 22.273-4.332 45.971-31.457 54.345-41.842 15.049 1.85 30.406 3.338 45.84 4.333l-20.631 23.913c-1.886 2.185-2.349 5.26-1.193 7.904 1.957 4.477 6.016 4.533 9.072 4.533 37.345 0 64.402-29.279 69.463-35.165 20.88-.591 40.26-2.43 57.775-5.489 4.08-.712 6.81-4.597 6.097-8.677-.713-4.081-4.595-6.81-8.678-6.097-12.786 2.233-26.645 3.786-41.416 4.654-2.906-17.074-.437-31.465 7.365-42.803 12.084-17.561 33.76-23.274 39.21-24.465 37.177 8.346 63.606 18.501 72.516 25.576 2.715 2.156 2.923 4.727.038 6.899-13.11 9.865-29.705 17.8-49.326 23.587-3.973 1.171-6.243 5.342-5.072 9.314 1.172 3.974 5.344 6.244 9.315 5.072 21.349-6.296 39.552-15.039 54.102-25.988 10.65-8.015 10.756-22.302.269-30.629zm-214.808-82.606c19.312 16.121 25.956 31.171 28.244 39.773-19.436-.915-37.734-.933-55.835-.205l-7.743-14.626zm-272.665 129.465c5.818-12.601 16.827-29.698 34.029-30.852 10.354-.691 10.634-15.854.328-16.949-17.168-1.817-27.519-19.366-32.845-32.186l78.413 22.906c-7.57 2.945-15.018 6.076-22.333 9.408-8.714 3.971-9.07 16.378-.426 20.747 3.615 1.828 9.944 4.326 18.504 7.23zm189.29 42.736c-7.576-7.544-27.497-25.072-54.814-31.779 16.86-9.366 16.192-8.841 17.302-10.037 22.269 4.945 47.124 9.652 73.247 13.394-9.517 10.628-23.601 24.092-35.735 28.422zm102.641-2.672 15.608-18.091c5.4.199 10.796.327 16.179.387-7.511 6.385-18.551 13.98-31.787 17.704zm52.046-32.846c-102.537 2.719-229.535-27.382-272.962-44.441 94.314-40.79 206.749-46.322 307.167-28.907-25.727 14.332-39.405 39.197-34.205 73.348z"/><ellipse cx="448.034" cy="373.641" rx="11.395" ry="11.418"/></svg>