<svg xmlns="http://www.w3.org/2000/svg" viewBox="0 0 24 24" width="24" height="24"><path d="M8 5L8 10 4 10 4 5 1 5 1 19 4 19 4 13 8 13 8 19 11 19 11 5zM23 19H13v-2.085l4.72-4.664c1.093-1.245 1.873-2.234 1.873-2.967 0-.594-.125-1.82-1.75-1.82-.781 0-1.784.536-1.784 2.026L16 10h-3V9.635c0-.847.212-1.629.635-2.346s1.011-1.278 1.763-1.682S16.991 5 17.919 5c1.491 0 2.64.344 3.445 1.033S22.573 7.711 22.573 9c0 .543-.101 1.073-.303 1.588s-.517 1.055-.943 1.621c-.427.566-3.844 4.327-3.844 4.327H23V19z"/></svg>