<?xml version="1.0" encoding="UTF-8"?><svg xmlns="http://www.w3.org/2000/svg" xmlns:xlink="http://www.w3.org/1999/xlink" viewBox="0 0 50 50" version="1.1"><path d="M28.93 9h-.246l-.125.008h-.125l-.122.008-.125.004-.125.007-.12.008-.122.012-.12.008-.122.015-.121.008-.117.016-.242.031-.118.016-.242.039-.117.023-.234.04-.121.023-.114.027-.117.027-.113.024-.121.027-.113.027-.114.032-.117.03-.227.063-.34.106-.109.035-.113.04-.328.116-.113.04-.11.042-.105.043-.11.047-.109.043-.105.043-.11.05-.21.095-.317.152-.102.05-.105.055-.305.165-.102.058-.097.059-.102.054-.097.059-.102.063-.098.062-.097.059-.098.062-.094.066-.097.063-.094.063-.098.066-.093.066-.094.07-.09.063-.094.074-.09.067-.09.07-.093.07-.09.075-.086.07-.09.074-.09.078-.258.223-.085.078-.165.156-.085.078-.082.082-.079.082-.082.082-.082.079-.078.086-.082.082-.074.082-.078.09-.074.082-.079.09-.074.081-.074.09-.07.086-.075.09-.074.094-.07.09-.07.086-.067.093-.07.09-.07.094-.2.281-.062.094-.067.098-.062.093-.063.098-.058.098-.063.097-.058.098-.059.101-.117.196-.055.105-.054.098-.11.203-.05.105-.051.102-.055.102-.05.105-.048.106-.156-.086-.086-.047-.09-.047-.097-.047-.102-.047-.105-.05-.11-.048-.113-.054-.113-.047-.121-.05-.25-.095-.13-.046-.265-.094-.137-.043-.14-.04-.137-.042-.281-.078-.145-.032-.14-.03-.145-.032-.14-.027-.145-.024-.07-.012-.075-.007-.066-.008-.074-.012-.067-.004-.074-.008-.066-.008h-.074l-.133-.007-.075-.004h-.152l-.086.004-.09.004-.082.004h-.086l-.171.015-.082.008-.086.008-.086.011-.079.008-.085.012-.082.016-.082.011-.247.047-.082.02-.078.015-.082.02-.078.023-.156.04-.078.027-.078.02-.157.054-.078.023-.074.028-.078.031-.074.027-.223.094-.074.035-.07.032-.075.035-.07.035-.07.039-.07.031-.071.043-.07.035-.07.04-.063.038-.07.043-.07.04-.063.042-.07.047-.063.043-.063.047-.066.043-.066.047-.063.047-.062.05-.063.047-.058.051-.06.047-.062.05-.058.056-.117.101-.059.055-.164.164-.055.058-.054.055-.11.117-.047.059-.054.059-.047.058-.055.063-.047.058-.14.188-.047.066-.047.063-.172.265-.04.067-.038.07-.043.066-.04.07-.034.067-.078.14-.032.075-.039.066-.062.149-.035.07-.032.074-.027.075-.063.148-.023.078-.031.074-.047.157-.024.074-.027.078-.02.078-.023.078-.02.082-.038.156-.02.082-.016.079-.03.164-.024.164-.016.082-.008.082-.008.086-.007.078-.016.172-.008.082-.011.258v.082l-.004.09.004.101.003.105v.106l.008.102.008.109.016.21.015.106.012.106.016.105.015.102.02.101.015.106.07.293-.07.027-.07.031-.195.098-.133.07-.063.032-.066.035-.062.039-.067.035-.062.035-.063.04-.058.038-.063.04-.059.038-.125.079-.117.085-.117.082-.226.18-.22.188-.109.097-.101.098-.106.098-.101.105-.098.106-.101.101-.188.219-.18.226-.086.114-.085.12-.086.114-.079.125-.078.121-.078.125-.148.25-.07.13-.067.124-.066.137-.063.129-.125.265-.054.141-.11.273-.047.137-.05.14-.047.145-.043.145-.04.14-.042.145-.036.145-.039.148-.03.145-.028.152-.028.144-.027.153-.02.148-.023.152-.015.153-.016.148-.016.153-.011.156-.008.152-.004.153-.008.152v.27l.008.226.008.219.007.11.012.112.012.11.008.11.047.327.015.106.04.218.093.422.027.106.028.101.03.106.028.105.032.098.035.105.03.098.036.106.035.097.04.102.077.195.043.098.043.101.043.094.043.098.094.187.047.098.05.094.051.09.102.187.219.36.062.085.055.086.063.09.058.082.125.172.067.082.062.086.066.082.067.078.07.078.067.082.07.078.066.079.074.078.075.074.07.078.078.074.07.07.079.075.156.14.078.075.156.132.082.07.082.067.164.125.086.067.086.058.172.125.086.059.09.058.09.055.086.059.093.054.09.055.09.05.094.052.094.054.093.051.188.094.195.093.195.086.098.04.098.042.203.079.098.035.101.039.203.07.106.031.101.032.106.03.105.028.102.028.11.023.1.027.22.047.21.04.22.038.108.012.11.016.11.011.113.012.109.012.113.008.113.011.114.004.11.008h.112l.114.004h28.636l.118-.004h.113l.11-.008.113-.004.113-.011.11-.008.112-.012.22-.023.112-.016.11-.012.105-.02.328-.058.211-.047.106-.027.105-.023.211-.055.106-.031.203-.063.105-.035.102-.035.101-.04.098-.034.203-.079.098-.042.098-.04.195-.086.094-.046.097-.047.094-.047.098-.047.093-.05.09-.055.188-.102.18-.11.09-.058.09-.055.089-.058.086-.059.172-.125.086-.058.082-.067.086-.062.082-.063.082-.066.078-.07.082-.067.078-.066.082-.075.074-.07.078-.07.075-.074.074-.07.078-.075.074-.078.07-.074.211-.235.067-.082.07-.078.067-.078.066-.082.063-.086.066-.082.125-.172.059-.082.062-.09.059-.086.054-.086.059-.09.164-.269.102-.188.05-.09.047-.093.05-.098.095-.187.043-.098.043-.094.043-.101.039-.098.043-.098.039-.097.039-.102.035-.097.031-.106.04-.098.03-.105.032-.098.031-.105.027-.106.028-.101.054-.211.02-.106.047-.21.02-.11.015-.11.02-.105.03-.218.036-.329.008-.113.011-.11.004-.109.008-.109v-.113l.004-.114v-.289l-.004-.093-.004-.09-.004-.086-.008-.18-.011-.086-.004-.09-.012-.086-.008-.085-.008-.09-.015-.086-.012-.086-.008-.086-.03-.172-.017-.09-.015-.082-.016-.086-.02-.082-.038-.172-.02-.082-.023-.086-.02-.082-.02-.078-.027-.086-.047-.164-.027-.078-.027-.082-.028-.078-.027-.086-.031-.078-.028-.078-.03-.082-.063-.157-.035-.078-.032-.078-.035-.078-.031-.074-.04-.078-.07-.149-.042-.078-.036-.074-.043-.074-.035-.075-.086-.148-.039-.07-.043-.07-.047-.075-.043-.07-.043-.074-.043-.067-.14-.21-.05-.067-.052-.07-.047-.067-.05-.066-.047-.067-.055-.066-.102-.133-.054-.062-.055-.067-.05-.062-.06-.063-.109-.125-.058-.058-.055-.063-.059-.062-.175-.176-.063-.059-.058-.058-.063-.055-.062-.059-.125-.109-.063-.059-.062-.05-.067-.055-.062-.055-.07-.05-.067-.051-.063-.051-.066-.05-.07-.052-.067-.047-.07-.05-.07-.047-.067-.051-.074-.047-.066-.047-.075-.043-.066-.043-.074-.043-.074-.047-.07-.042-.075-.04-.074-.043-.07-.042-.079-.036-.074-.043-.078-.039-.074-.039-.149-.07-.078-.04-.078-.034-.078-.032-.078-.035-.156-.062-.164-.063-.078-.03-.083-.032-.078-.027-.082-.032.02-.25.012-.12.015-.25.008-.25v-.294l-.008-.336-.008-.168-.007-.164-.012-.168-.031-.328-.016-.168-.02-.16-.023-.16-.023-.168-.028-.156-.027-.164-.063-.32-.07-.313-.035-.16-.04-.157-.042-.156-.043-.152-.094-.313-.05-.152-.051-.149-.051-.152-.055-.152-.055-.149-.058-.148-.063-.145-.058-.148-.067-.148-.062-.141-.067-.145-.07-.144-.066-.145-.074-.14-.075-.137-.074-.14-.074-.137-.078-.137-.082-.137-.082-.133-.086-.136-.082-.133-.086-.133-.086-.129-.094-.133-.09-.125-.093-.129-.188-.25-.098-.125-.097-.12-.102-.122-.098-.12-.21-.235-.102-.117-.219-.227-.105-.117-.453-.438-.118-.101-.117-.106-.12-.105-.118-.098-.121-.101-.125-.102-.125-.094-.121-.097-.13-.094-.124-.094-.129-.09-.133-.094-.129-.09-.129-.081-.136-.09-.13-.082-.136-.082-.137-.078-.136-.082-.137-.079-.422-.222-.29-.14-.144-.067-.14-.067-.149-.062-.148-.067-.145-.062-.152-.055-.148-.062-.149-.055-.156-.055-.152-.046-.149-.055-.156-.047-.153-.047-.156-.047-.156-.039-.16-.043-.156-.039-.16-.035-.16-.04-.481-.093-.164-.027-.16-.028-.168-.023-.16-.02-.169-.02-.164-.019-.164-.011-.172-.016-.164-.016-.335-.015-.172-.004L29.098 9zm-.106 2h.25l.145.004.14.004.29.015.14.008.145.016.14.012.281.03.137.02.14.02.138.02.136.023.14.027.138.024.132.03.137.028.137.031.265.07.13.04.136.035.258.078.133.043.258.094.125.047.128.047.13.05.124.055.125.05.243.11.125.059.242.117.117.063.121.062.469.266.113.074.113.066.114.075.113.078.219.148.218.156.211.164.106.079.105.085.305.258.102.09.093.094.098.086.195.187.188.188.27.293.09.101.171.203.082.102.086.105.082.102.082.105.234.329.075.109.078.11.07.109.074.113.067.113.07.117.066.114.067.117.066.113.067.121.058.114.121.242.059.12.11.243.109.25.093.25.051.125.043.125.047.129.043.129.039.129.043.129.035.129.04.132.034.133.032.13.035.136.027.129.031.137.028.136.023.133.024.137.02.136.023.133.02.14.015.138.015.14.035.422.016.281v.141l.004.14v.231l-.004.09v.094l-.008.101-.015.219-.149 1.797 1.547.531.063.02.187.07.059.023.062.028.063.023.175.082.063.028.117.054.235.125.054.032.059.03.055.032.058.031.059.035.05.032.06.039.054.035.054.031.051.04.055.038.055.035.05.04.055.035.05.043.052.035.054.043.051.035.05.043.048.039.054.043.047.043.051.039.047.043.047.047.14.129.047.047.047.043.094.093.043.047.047.047.039.047.043.047.047.05.043.047.039.051.086.102.035.047.043.05.039.051.039.055.035.047.043.054.035.055.035.05.04.056.035.05.035.055.039.055.031.054.035.055.063.11.035.058.031.055.031.058.032.055.03.059.028.058.032.059.027.055.11.234.023.058.027.063.023.063.024.058.023.063.024.058.02.059.027.062.015.063.024.062.039.125.015.063.02.062.016.063.02.066.015.067.03.125.013.066.015.063.012.066.016.066.011.067.008.066.012.063.012.066.007.07.008.067.008.062.016.14.007.063.004.07v.067l.004.07.008.07v.067l.004.067v.316l-.004.086-.008.086-.004.086-.004.082-.007.09-.008.082-.012.086-.008.082-.011.082-.012.086-.016.082-.011.082-.016.086-.016.082-.02.078-.015.082-.02.078-.023.082-.02.082-.019.078-.027.078-.024.078-.023.082-.027.075-.083.234-.093.223-.032.078-.03.074-.036.07-.039.075-.035.074-.035.07-.04.074-.035.074-.042.067-.04.074-.042.066-.043.075-.04.066-.042.067-.047.07-.047.066-.043.067-.047.066-.05.066-.048.067-.047.062-.101.125-.055.063-.05.062-.055.063-.051.062-.11.118-.058.058-.055.059-.058.058-.059.055-.055.059-.058.054-.188.164-.062.051-.063.055-.062.05-.063.047-.062.051-.067.047-.066.05-.133.095-.066.043-.07.047-.067.042-.07.047-.07.043-.07.04-.071.042-.074.04-.07.038-.075.036-.07.043-.297.14-.074.032-.079.03-.074.032-.234.094-.078.027-.078.024-.157.054-.082.02-.082.027-.164.04-.078.023-.082.02-.086.015-.082.02-.082.015-.086.016-.082.011-.082.016-.172.023-.086.008-.082.012-.09.008-.086.007-.171.008-.09.008-.086.004h-28.77l-.086-.004-.086-.008-.086-.004-.09-.004-.171-.015-.082-.012-.09-.008-.086-.011-.082-.012-.082-.016-.086-.011-.086-.016-.082-.016-.082-.02-.082-.015-.082-.02-.082-.023-.082-.02-.078-.019-.082-.027-.082-.02-.157-.054-.078-.024-.078-.027-.234-.094-.149-.063-.078-.03-.297-.141-.074-.04-.07-.038-.074-.04-.07-.039-.071-.043-.07-.039-.07-.043-.071-.047-.07-.042-.063-.047-.07-.043-.133-.094-.066-.05-.067-.048-.062-.05-.063-.047-.062-.051-.067-.055-.058-.05-.188-.165-.113-.113-.059-.055-.171-.172-.055-.062-.055-.059-.055-.062-.101-.125-.055-.063-.047-.062-.054-.063-.047-.062-.047-.067-.05-.066-.048-.066-.043-.067-.047-.066-.046-.07-.04-.067-.046-.066-.04-.075-.042-.066-.04-.074-.043-.067-.039-.074-.035-.074-.035-.07-.039-.075-.031-.074-.04-.07-.03-.074-.032-.078-.093-.223-.083-.234-.027-.075-.023-.082-.07-.234-.024-.082-.02-.082-.02-.078-.015-.082-.02-.078-.015-.082-.016-.086-.011-.082-.016-.082-.012-.086-.011-.082-.008-.082-.012-.086-.008-.082-.007-.09-.004-.082-.008-.086v-.086L4 31.46v-.3l.004-.118.004-.121.008-.125.007-.121.012-.117.012-.122.016-.12.015-.118.016-.12.023-.114.024-.121.023-.114.024-.117.054-.226.031-.117.032-.11.039-.113.031-.11.04-.109.038-.105.04-.11.046-.101.04-.106.046-.105.047-.102.05-.101.102-.196.055-.101.055-.094.058-.094.055-.093.062-.094.059-.086.125-.18.066-.082.063-.086.07-.086.281-.312.079-.074.07-.075.234-.21.078-.063.086-.067.078-.062.086-.063.086-.058.09-.063.04-.023.042-.027.047-.028.043-.027.047-.027.043-.024.047-.027.047-.024.046-.027.188-.094.047-.02.047-.027 1.586-.703-.414-1.699-.032-.133-.007-.07-.016-.07-.024-.149-.007-.078-.016-.148-.008-.079-.004-.078-.004-.074v-.078l-.003-.074-.004-.07.004-.063v-.063l.003-.058v-.063l.004-.058.004-.063.004-.054.008-.063.004-.058.015-.118.008-.054.008-.063.024-.11.007-.058.012-.055.012-.058.015-.055.012-.055.016-.054.011-.055.016-.055.02-.054.015-.051.02-.059.015-.05.02-.051.02-.055.039-.101.023-.051.02-.051.023-.05.02-.052.023-.05.023-.047.028-.051.027-.047.047-.094.031-.05.024-.047.03-.043.056-.094.062-.094.031-.043.032-.047.03-.039.032-.047.063-.085.035-.04.035-.043.031-.042.04-.04.034-.043.036-.039.039-.039.07-.078.078-.078.04-.035.038-.04.078-.07.047-.035.078-.07.047-.031.04-.035.042-.032.043-.035.047-.03.043-.032.047-.031.043-.032.047-.027.043-.031.047-.028.046-.03.047-.028.047-.024.055-.03.047-.028.047-.024.05-.023.047-.027.102-.047.05-.02.102-.047.055-.02.05-.023.051-.02.055-.015.05-.02.06-.019.05-.016.055-.02.055-.015.058-.015.051-.012.059-.016.054-.011.059-.012.058-.016.055-.011.059-.008.058-.012.055-.012.059-.008.062-.007.117-.016.059-.004.062-.008.059-.004.125-.007h.063l.058-.004.066-.004h.137l.04.004.085.008h.043l.043.003.05.008.095.008.05.012.043.004.11.015.101.024.11.02.11.027.108.023.114.027.11.032.109.035.117.031.11.04.108.034.106.035.105.043.106.036.098.043.101.039.094.039.09.043.086.035.082.043.078.035.074.035.125.063.047.03 1.797 1.036.222-.07.899-1.91.039-.09.043-.086.047-.086.047-.09.043-.082.046-.09.047-.082.047-.09.051-.082.047-.082.047-.086.05-.082.055-.082.051-.086.05-.082.06-.078.05-.082.055-.078.055-.082.058-.082.059-.078.054-.078.176-.235.063-.07.058-.078.063-.075.062-.078.063-.074.062-.07.133-.149.063-.07.066-.074.066-.067.07-.074.067-.066.067-.07.07-.067.14-.14.07-.063.075-.066.066-.067.075-.066.078-.063.07-.062.074-.067.075-.062.078-.063.074-.058.078-.063.078-.054.078-.063.156-.117.079-.055.082-.058.078-.051.078-.059.082-.054.086-.055.082-.05.078-.056.086-.05.086-.047.082-.051.086-.05.082-.052.09-.046.082-.047.09-.047.082-.047.09-.043.085-.043.09-.043.09-.047.09-.043.086-.039.094-.043.09-.035.093-.04.086-.038.094-.04.094-.034.09-.036.187-.07.094-.031.093-.035.094-.031.098-.032.094-.027.093-.031.293-.082.094-.028.098-.023.101-.024.098-.023.094-.023.101-.02.102-.023.094-.02.101-.02.102-.015.097-.02.106-.015.098-.016.101-.012.102-.015.105-.016.098-.012.105-.007.106-.012.097-.008.106-.008.101-.008.106-.007.21-.008.102-.004.11-.004zm3.817 11h-.078l-.079.004h-.078l-.078.008-.082.004-.074.004-.082.007-.078.004-.157.016-.082.012-.078.007-.082.012-.234.035-.082.016-.078.012-.157.03-.082.02-.078.016-.164.04-.078.019-.16.043-.156.046-.16.047-.164.051-.16.059-.157.054-.16.063-.164.062-.16.07-.157.067-.48.235-.16.082-.156.085-.16.086-.32.188-.157.101-.16.098-.157.11-.156.105-.16.11-.156.113-.313.234-.156.125-.152.125-.157.129 2.192 2.465.105-.09.106-.082.101-.082.106-.086.11-.078.105-.078.101-.075.106-.074.105-.07.102-.07.105-.07.106-.063.101-.067.106-.058.101-.063.102-.054.105-.059.102-.05.105-.055.305-.141.102-.043.101-.04.102-.042.097-.035.106-.035.098-.036.101-.035.098-.023.097-.031.102-.028.098-.02.097-.023.102-.02.098-.015.093-.015.098-.016.094-.012.195-.015.094-.004h.093l.094-.004.098.004h.09l.093.004.094.011.09.004.09.012.09.015.093.016.09.016.086.02.18.046.086.027.09.028.082.031.09.031.082.035.086.032.082.043.086.035.132.07.063.04.062.034.125.079.063.043.058.042.06.04.058.043.117.093.11.094.05.047.055.05.054.055.047.051.051.05.05.056.048.05.047.059.046.055.043.054.043.059.047.059.043.058.035.059.043.058.035.063.04.058.039.063.03.062.036.063.031.062.063.133.027.067.031.062.028.067.023.066.028.066.019.067.023.066.02.07.02.067.015.066.02.075.011.066.016.07.012.067.011.074.008.066.012.07.004.07.008.071.008.14v.141l-.004.07v.071l-.004.07-.008.075-.008.066-.008.074-.008.07-.011.075-.016.066-.012.074-.015.075-.016.07-.015.074-.04.14-.023.075-.02.07-.027.075-.023.074-.028.066-.03.074-.063.141-.036.066-.039.075-.078.132-.043.07-.043.067-.047.063-.046.066-.055.063-.05.066-.056.059-.054.062-.063.059-.062.062-.063.059-.066.054-.07.059-.07.05-.075.055-.074.051-.082.047-.078.05-.172.095-.09.043-.094.043-.094.039-.097.043-.203.07-.22.062-.108.028-.235.054-.125.024-.125.02-.129.019-.265.031-.137.008-.14.012-.15.004-.148.007h-.199l-.047-.003-.043-.004-.047-.004h-.046l-.094-.016-.051-.008-.047-.008-.05-.011-.047-.008-.047-.012-.051-.011-.055-.016-.05-.012-.047-.015-.051-.016-.055-.02-.102-.035-.105-.035-.105-.043-.106-.047-.105-.05-.11-.055-.11-.051-.109-.063-.113-.058-.113-.066-.11-.063-.113-.074-.113-.07-.113-.075-.34-.234-.117-.086-.114-.086-.117-.09-.113-.086-.113-.094-.235-.187-.11-.098-.116-.097-.34-.305-.227-.211-.11-.105-.112-.106-.438-.437-.105-.118-.106-.109-.21-.227-.098-.113-.106-.113-.098-.113-.101-.114-.098-.117-.187-.226-.098-.114-.09-.117-.093-.11-.258-.34-.082-.108-.106-.145-.117-.156-.133-.168-.144-.18-.075-.094-.078-.097-.082-.102-.086-.098-.18-.21-.093-.106-.195-.219-.211-.226-.11-.11-.11-.117-.112-.113-.118-.113-.12-.121-.122-.114-.125-.117-.129-.113-.132-.117-.13-.118-.14-.113-.137-.11-.14-.113-.145-.117-.144-.11-.305-.218-.152-.101-.16-.106-.079-.05-.078-.055-.082-.047-.078-.051-.082-.047-.086-.05-.164-.094-.086-.047-.082-.047-.09-.047-.082-.043-.09-.047-.086-.043-.09-.039-.085-.043-.09-.043-.09-.039-.09-.043-.094-.035-.086-.04-.28-.105-.09-.035-.098-.031-.188-.062-.098-.032-.195-.054-.094-.028-.097-.027-.102-.024-.098-.023-.101-.02-.102-.023-.097-.02-.106-.019-.097-.016-.106-.015-.101-.016-.102-.012-.316-.035-.106-.004-.105-.007-.11-.004-.101-.004h-.11l-.109-.004h-.121l-.121.004-.117.004h-.118l-.117.004-.117.011-.113.004-.114.012-.109.008-.113.008-.11.015-.109.012-.105.015-.11.016-.21.031-.102.02-.106.015-.097.024-.106.02-.293.07-.098.027-.093.024-.188.054-.094.032-.09.027-.179.062-.09.035-.172.063-.086.035-.086.04-.078.034-.082.036-.086.043-.078.035-.082.043-.078.039-.074.039-.078.047-.075.043-.074.039-.074.047-.074.043-.281.187-.067.05-.066.048-.133.101-.125.102-.063.054-.062.051-.063.055-.054.055-.063.054-.058.055-.055.059-.055.05-.058.063-.051.055-.055.054-.055.063-.046.058-.051.059-.055.059-.047.058-.05.063-.094.125-.043.062-.047.063-.04.062-.042.063-.047.062-.04.067-.038.062-.043.066-.035.067-.04.062-.077.133-.032.067-.039.07-.031.062-.031.067-.035.07-.063.133-.027.07-.031.067-.032.074-.023.066-.031.067-.024.074-.023.066-.028.07-.07.212-.098.351-.039.145-.03.14-.056.282-.023.14-.02.145-.02.14-.015.145-.011.133-.008.132-.004.133-.008.13v.265l.008.137.008.128.007.133.008.13.031.265.024.125.023.129.024.132.023.13.063.25.035.128.035.125.04.125.042.125.043.121.047.125.047.121.055.122.05.12.055.122.117.234.059.113.066.118.067.113.07.11.066.113.149.218.078.11.078.105.078.11.082.101.172.203.09.102.09.093.09.098.093.094.196.187.097.09.106.09.101.082.211.172.219.156.113.078.11.078.117.075.234.14.121.067.121.062.125.067.094.047.102.046.097.043.098.047.203.078.098.043.304.106.305.094.106.027.203.055.105.02.106.023.101.02.11.019.101.015.317.047.105.012.106.008.109.007.105.008.11.004.105.004.11.004h.207l.203-.008.105-.004.102-.004.105-.011.106-.008.101-.012.106-.012.101-.011.106-.016.105-.012.203-.039.11-.02.101-.019.211-.047.106-.027.101-.027.106-.024.21-.062.102-.032.11-.03.105-.04.102-.035.105-.035.211-.078.211-.086.105-.04.102-.046.105-.047.11-.047.101-.05.211-.102.106-.055.101-.055.106-.054.105-.059.102-.059.105-.058.106-.063.101-.062.106-.063.105-.066.102-.066.105-.07.102-.067.102-.07.105-.07.102-.075.105-.074.102-.074.304-.235.106-.082.097-.086.106-.078.098-.09-2.192-2.46-.21.171-.102.082-.106.082-.21.157-.102.074-.11.078-.101.066-.102.075-.105.066-.106.062-.101.067-.106.062-.101.059-.106.058-.203.11-.105.05-.102.051-.102.047-.101.043-.102.047-.101.043-.102.035-.101.043-.102.032-.098.035-.203.062-.195.055-.102.02-.093.023-.102.02-.098.019-.097.016-.094.011-.098.008-.093.012-.098.008-.098.003-.093.004h-.188l-.094-.004-.093-.007-.094-.004-.09-.012-.09-.008-.09-.015-.094-.012-.09-.02-.085-.023-.09-.02-.09-.023-.086-.023-.09-.032-.258-.093-.085-.04-.083-.039-.085-.039-.067-.035-.125-.07-.062-.04-.063-.034-.062-.043-.063-.04-.062-.042-.059-.043-.055-.043-.058-.043-.059-.047-.055-.047-.109-.102-.055-.046-.05-.051-.047-.051-.051-.055-.05-.05-.095-.11-.046-.058-.043-.051-.043-.063-.047-.058-.043-.055-.035-.059-.043-.062-.036-.063-.039-.058-.039-.063-.03-.062-.036-.063-.031-.062-.032-.067-.03-.062-.028-.063-.031-.066-.028-.07-.023-.067-.027-.062-.02-.067-.023-.07-.04-.133-.015-.07-.02-.067-.011-.074-.016-.066-.023-.14-.008-.067-.012-.074-.004-.067-.008-.07-.004-.07v-.075l-.004-.066v-.074l.004-.067v-.074l.004-.066.008-.075.008-.066.008-.074.008-.07.011-.07.016-.075.012-.066.015-.075.016-.07.015-.074.02-.067.02-.074.023-.07.02-.07.027-.07.023-.071.028-.066.03-.075.032-.066.031-.07.036-.067.039-.066.039-.07.043-.067.039-.062.043-.067.093-.125.055-.062.05-.063.056-.058.054-.063.125-.117.063-.055.066-.058.07-.051.07-.059.075-.05.078-.047.156-.102.086-.047.086-.043.09-.043.094-.047.094-.039.097-.039.102-.039.101-.035.11-.035.219-.063.117-.03.117-.028.25-.047.129-.02.265-.039.137-.015.29-.024.148-.011.152-.004h.316l.078.004.157.015.074.012.078.012.078.007.078.016.075.016.078.015.148.04.156.038.075.028.078.02.07.027.074.03.078.024.075.032.07.027.148.062.07.036.15.07.07.035.074.04.066.034.074.043.067.035.074.043.066.04.07.042.07.047.067.043.07.04.133.093.133.09.13.098.132.093.129.102.125.098.121.105.121.102.234.21.118.102.328.316.203.211.098.102.093.102.094.105.094.098.172.195.156.187.074.09.074.086.133.164.121.157.106.136.09.121.074.106.058.082.047.062.035.051.157.219.086.11.086.113.09.117.093.117.094.121.098.121.203.242.105.13.11.124.226.258.117.129.117.133.243.258.125.132.129.13.132.128.13.137.41.387.28.257.15.125.144.125.297.25.304.243.153.117.16.117.16.113.156.114.16.109.16.105.168.11.078.047.086.05.082.055.082.047.083.05.085.048.082.047.09.046.082.043.086.047.086.043.082.04.09.046.082.04.09.038.086.043.086.035.09.04.086.035.09.035.085.035.086.031.09.031.086.032.18.062.09.028.086.027.093.023.09.028.086.02.09.026.094.016.09.024.086.02.093.015.09.015.094.016.36.047.093.004.094.008.18.007h.09l.093.004.121-.004h.238l.121-.004.114-.007.117-.004.113-.012.114-.004.109-.012.113-.011.11-.008.109-.016.105-.015.11-.016.21-.031.102-.02.106-.015.097-.024.106-.02.39-.093.376-.11.359-.124.086-.032.172-.07.086-.04.078-.034.086-.04.082-.035.078-.039.082-.039.078-.043.074-.039.078-.043.075-.043.074-.046.074-.04.074-.046.07-.047.07-.043.071-.047.07-.05.067-.048.2-.152.124-.102.066-.054.06-.051.062-.055.054-.05.063-.06.058-.054.168-.168.051-.058.059-.055.05-.059.051-.062.153-.176.047-.063.046-.058.047-.063.043-.062.047-.063.086-.125.043-.066.04-.063.038-.066.043-.066.04-.067.038-.062.035-.067.036-.062.039-.07.035-.067.031-.066.031-.07.035-.067.032-.066.03-.07.028-.067.032-.067.03-.07.028-.066.024-.074.027-.067.027-.07.07-.211.024-.067.02-.074.042-.14.106-.422.027-.145.028-.14.047-.29.015-.14.016-.145.011-.129.008-.136.008-.13.004-.136v-.262l-.004-.132-.012-.133-.004-.13-.011-.132-.016-.133-.02-.125-.019-.133-.047-.257-.023-.125-.063-.258-.035-.125-.039-.13-.035-.12-.043-.125-.043-.121-.05-.125-.048-.121-.101-.243-.055-.117-.059-.12-.058-.114-.125-.235-.067-.109-.07-.113-.066-.113-.149-.22-.156-.21-.078-.11-.082-.101-.172-.203-.09-.102-.09-.093-.09-.098-.093-.094-.196-.187-.097-.09-.106-.09-.097-.082-.11-.086-.105-.086-.219-.156-.113-.078-.11-.078-.117-.075-.117-.066-.117-.074-.121-.067-.121-.062-.196-.098-.07-.039-.074-.031-.07-.035-.075-.032-.066-.03-.074-.028-.075-.031-.07-.028-.148-.055-.07-.027-.075-.023-.078-.028-.074-.02-.07-.026-.075-.02-.078-.023-.074-.02-.07-.02-.079-.015-.074-.024-.078-.015-.223-.047-.078-.016-.074-.008-.078-.015-.074-.012-.078-.012-.078-.007-.075-.012-.078-.008-.074-.008-.078-.004-.078-.007-.078-.004-.075-.004-.234-.012z" fill-rule="evenodd" id="surface1"/><metadata><rdf:RDF xmlns:rdf="http://www.w3.org/1999/02/22-rdf-syntax-ns#" xmlns:rdfs="http://www.w3.org/2000/01/rdf-schema#" xmlns:dc="http://purl.org/dc/elements/1.1/"><rdf:Description about="https://iconscout.com/legal#licenses" dc:title="jsfiddle" dc:description="jsfiddle" dc:publisher="Iconscout" dc:date="2017-12-09" dc:format="image/svg+xml" dc:language="en"><dc:creator><rdf:Bag><rdf:li>Icons8</rdf:li></rdf:Bag></dc:creator></rdf:Description></rdf:RDF></metadata></svg>