<?xml version="1.0" encoding="UTF-8" standalone="yes"?>
<svg xmlns="http://www.w3.org/2000/svg" viewBox="0 0 50 50" width="50" height="50" fill="#000000">
  <path d="M 3.8125 2.90625 L 1.6875 3.90625 L 1.90625 5.09375 L 3.5 4.3125 L 3.5 11.40625 L 5.09375 11.40625 L 5.09375 2.90625 Z M 11 6 L 11 10 L 50 10 L 50 6 Z M 3.6875 19.6875 C 2.585938 19.6875 1.695313 20.09375 1.09375 20.59375 L 1.59375 21.6875 C 1.992188 21.386719 2.605469 21 3.40625 21 C 4.507813 21 4.90625 21.605469 4.90625 22.40625 C 4.90625 23.507813 4 24.605469 2 26.40625 L 1 27.3125 L 1 28.3125 L 6.8125 28.3125 L 6.8125 27 L 3.3125 27 L 4 26.3125 C 5.398438 25.011719 6.5 23.8125 6.5 22.3125 C 6.5 20.914063 5.585938 19.6875 3.6875 19.6875 Z M 11 23 L 11 27 L 50 27 L 50 23 Z M 3.59375 36.59375 C 2.59375 36.59375 1.6875 36.886719 1.1875 37.1875 L 1.59375 38.40625 C 1.894531 38.207031 2.613281 37.90625 3.3125 37.90625 C 4.3125 37.90625 4.6875 38.398438 4.6875 39 C 4.6875 39.898438 3.699219 40.1875 3 40.1875 L 2.3125 40.1875 L 2.3125 41.40625 L 3 41.40625 C 4 41.40625 4.90625 41.8125 4.90625 42.8125 C 4.90625 43.511719 4.386719 44.1875 3.1875 44.1875 C 2.386719 44.1875 1.613281 43.886719 1.3125 43.6875 L 0.8125 44.8125 C 1.3125 45.113281 2.1875 45.40625 3.1875 45.40625 C 5.289063 45.40625 6.5 44.210938 6.5 42.8125 C 6.398438 41.710938 5.59375 40.886719 4.59375 40.6875 C 5.695313 40.289063 6.1875 39.585938 6.1875 38.6875 C 6.1875 37.585938 5.394531 36.59375 3.59375 36.59375 Z M 11 40 L 11 44 L 50 44 L 50 40 Z"/>
</svg>
