<?xml version="1.0" encoding="UTF-8" standalone="yes"?>
<svg xmlns="http://www.w3.org/2000/svg" viewBox="0 0 24 24" width="24" height="24" fill="#000000">
  <path d="M 3 4.5 A 1.5 1.5 0 0 0 1.5 6 A 1.5 1.5 0 0 0 3 7.5 A 1.5 1.5 0 0 0 4.5 6 A 1.5 1.5 0 0 0 3 4.5 z M 8 5 A 1.0001 1.0001 0 1 0 8 7 L 21 7 A 1.0001 1.0001 0 1 0 21 5 L 8 5 z M 3 10.5 A 1.5 1.5 0 0 0 1.5 12 A 1.5 1.5 0 0 0 3 13.5 A 1.5 1.5 0 0 0 4.5 12 A 1.5 1.5 0 0 0 3 10.5 z M 8 11 A 1.0001 1.0001 0 1 0 8 13 L 21 13 A 1.0001 1.0001 0 1 0 21 11 L 8 11 z M 3 16.5 A 1.5 1.5 0 0 0 1.5 18 A 1.5 1.5 0 0 0 3 19.5 A 1.5 1.5 0 0 0 4.5 18 A 1.5 1.5 0 0 0 3 16.5 z M 8 17 A 1.0001 1.0001 0 1 0 8 19 L 21 19 A 1.0001 1.0001 0 1 0 21 17 L 8 17 z"/>
</svg>
